<svg width="12" height="12" viewBox="0 0 12 12" fill="none" xmlns="http://www.w3.org/2000/svg">
<path d="M9.34292 11.56H2.21015C1.00462 11.56 0 10.5634 0 9.26793V2.19241C0 0.996552 1.00462 0 2.21015 0H9.34292C10.5485 0 11.5531 0.996552 11.5531 2.19241V9.26793C11.6535 10.5634 10.6489 11.56 9.34292 11.56Z" fill="white"/>
<path d="M8.77654 8.73017C8.57561 8.92948 8.27423 8.92948 8.07331 8.73017L3.15069 3.84707C2.94977 3.64776 2.94977 3.34879 3.15069 3.14948C3.35162 2.95017 3.653 2.95017 3.85392 3.14948L8.77654 8.03259C8.97746 8.2319 8.97746 8.53086 8.77654 8.73017Z" fill="#40189D"/>
<path d="M3.15069 8.73017C2.94977 8.53086 2.94977 8.2319 3.15069 8.03259L8.07331 3.14948C8.27423 2.95017 8.57561 2.95017 8.77654 3.14948C8.97746 3.34879 8.97746 3.64776 8.77654 3.84707L3.85392 8.73017C3.653 8.92948 3.35162 8.92948 3.15069 8.73017Z" fill="#40189D"/>
</svg>
